<svg width="20" height="20" viewBox="0 0 20 20" fill="none" xmlns="http://www.w3.org/2000/svg"> <g clipPath="url(#clip0_2_5927)"> <path d="M9.99999 19.9903C11.366 19.9903 12.652 19.7289 13.8578 19.2063C15.0637 18.6837 16.1274 17.9618 17.049 17.0407C17.9706 16.1196 18.6928 15.0564 19.2156 13.8511C19.7385 12.6458 20 11.3605 20 9.99512C20 8.62977 19.7385 7.34445 19.2156 6.13916C18.6928 4.93387 17.9706 3.87066 17.049 2.94954C16.1274 2.02842 15.0621 1.30655 13.8529 0.783931C12.6438 0.26131 11.3562 0 9.99018 0C8.62417 0 7.33823 0.26131 6.13235 0.783931C4.92646 1.30655 3.86437 2.02842 2.94607 2.94954C2.02778 3.87066 1.30719 4.93387 0.784313 6.13916C0.261438 7.34445 0 8.62977 0 9.99512C0 11.3605 0.261438 12.6458 0.784313 13.8511C1.30719 15.0564 2.02941 16.1196 2.95097 17.0407C3.87255 17.9618 4.93627 18.6837 6.14214 19.2063C7.34803 19.7289 8.63398 19.9903 9.99999 19.9903ZM9.99999 18.2656C8.84966 18.2656 7.7745 18.0533 6.7745 17.6287C5.77451 17.204 4.89706 16.6128 4.14216 15.855C3.38725 15.0972 2.79738 14.2186 2.37254 13.219C1.94771 12.2195 1.7353 11.1449 1.7353 9.99512C1.7353 8.84536 1.94771 7.77072 2.37254 6.77121C2.79738 5.7717 3.38725 4.89304 4.14216 4.13523C4.89706 3.37743 5.77287 2.78459 6.7696 2.35669C7.76633 1.92879 8.83986 1.71484 9.99018 1.71484C11.1405 1.71484 12.2157 1.92879 13.2157 2.35669C14.2157 2.78459 15.0947 3.37743 15.8529 4.13523C16.6111 4.89304 17.2042 5.7717 17.6324 6.77121C18.0604 7.77072 18.2777 8.84536 18.2843 9.99512C18.2843 11.1449 18.0702 12.2195 17.6421 13.219C17.214 14.2186 16.6209 15.0972 15.8627 15.855C15.1046 16.6128 14.2255 17.204 13.2254 17.6287C12.2255 18.0533 11.1503 18.2656 9.99999 18.2656ZM9.99999 17.3249C11.0196 17.3249 11.9722 17.1354 12.8578 16.7565C13.7435 16.3776 14.5229 15.8517 15.196 15.1789C15.8693 14.506 16.3938 13.727 16.7696 12.8418C17.1454 11.9566 17.3333 11.0077 17.3333 9.99512C17.3333 8.97601 17.1437 8.02386 16.7647 7.13867C16.3856 6.25349 15.8595 5.47609 15.1863 4.80648C14.5131 4.13687 13.7337 3.61262 12.8481 3.23372C11.9624 2.85482 11.0098 2.66537 9.99018 2.66537C8.97711 2.66537 8.02777 2.85482 7.14215 3.23372C6.25653 3.61262 5.47875 4.13687 4.80882 4.80648C4.13888 5.47609 3.61601 6.25349 3.24019 7.13867C2.86438 8.02386 2.67647 8.97601 2.67647 9.99512C2.67647 11.0142 2.86601 11.9664 3.24509 12.8516C3.62418 13.7368 4.14869 14.5142 4.81862 15.1837C5.48855 15.8534 6.26633 16.3776 7.15195 16.7565C8.03757 17.1354 8.98692 17.3249 9.99999 17.3249ZM9.99999 16.4332C9.10457 16.4332 8.26797 16.2666 7.49019 15.9334C6.71241 15.6003 6.03104 15.1397 5.44607 14.5518C4.8611 13.9638 4.40195 13.2811 4.06862 12.5037C3.73529 11.7263 3.56863 10.8901 3.56863 9.99512C3.56863 9.10014 3.73366 8.26394 4.06372 7.48654C4.39379 6.70915 4.85294 6.02484 5.44117 5.43362C6.0294 4.84241 6.71078 4.38185 7.48528 4.05195C8.25979 3.72204 9.09476 3.55709 9.99018 3.55709C10.8856 3.55709 11.7222 3.72204 12.5 4.05195C13.2778 4.38185 13.9624 4.84241 14.5539 5.43362C15.1454 6.02484 15.6078 6.70915 15.9411 7.48654C16.2745 8.26394 16.4412 9.10014 16.4412 9.99512C16.4412 10.8836 16.2762 11.7182 15.9461 12.4988C15.616 13.2795 15.1568 13.9638 14.5686 14.5518C13.9804 15.1397 13.2957 15.6003 12.5147 15.9334C11.7336 16.2666 10.8954 16.4332 9.99999 16.4332ZM10.0785 12.6409C10.3595 12.6409 10.5637 12.6883 10.6911 12.783C10.8186 12.8777 11.0032 12.9251 11.2451 12.9251C11.4804 12.9251 11.6862 12.8336 11.8627 12.6507C12.0392 12.4678 12.2026 12.2685 12.3529 12.0529C12.5229 11.8047 12.6454 11.5777 12.7206 11.3719C12.7957 11.1661 12.8333 11.06 12.8333 11.0534C12.8268 11.0469 12.7451 10.9979 12.5883 10.9064C12.4314 10.815 12.2761 10.6647 12.1225 10.4557C11.9689 10.2466 11.8921 9.96571 11.8921 9.61296C11.8921 9.31245 11.9526 9.0642 12.0735 8.86822C12.1944 8.67224 12.317 8.52525 12.4412 8.42726C12.5653 8.32927 12.634 8.27374 12.6471 8.26067C12.4902 8.03202 12.3154 7.8687 12.1225 7.77072C11.9297 7.67273 11.7516 7.61393 11.5883 7.59433C11.4248 7.57473 11.3104 7.56493 11.2451 7.56493C10.9771 7.56493 10.7369 7.61883 10.5245 7.72663C10.3121 7.83441 10.134 7.88831 9.99018 7.88831C9.84639 7.88831 9.67809 7.83605 9.48528 7.73152C9.29247 7.627 9.07842 7.57474 8.84312 7.57474C8.39868 7.57474 7.99019 7.75439 7.61764 8.11369C7.24509 8.47299 7.05881 8.99561 7.05881 9.68155C7.05881 10.1192 7.13235 10.5487 7.27941 10.9701C7.42646 11.3915 7.6013 11.7459 7.80391 12.0334C7.98038 12.2816 8.15195 12.4939 8.31861 12.6703C8.48529 12.8467 8.683 12.9348 8.91175 12.9348C9.12744 12.9348 9.30881 12.8858 9.45588 12.7878C9.60293 12.6899 9.81046 12.6409 10.0785 12.6409ZM11 6.97698C11.1046 6.8398 11.1928 6.68628 11.2647 6.51643C11.3366 6.34657 11.3725 6.16692 11.3725 5.97747C11.3725 5.91215 11.3693 5.86642 11.3628 5.84028C11.1797 5.84682 10.9918 5.90072 10.799 6.00198C10.6062 6.10323 10.4445 6.22898 10.3137 6.37924C10.2157 6.49683 10.1258 6.64055 10.0441 6.8104C9.96241 6.98026 9.92155 7.15991 9.92155 7.34936C9.92155 7.36896 9.92319 7.39182 9.92646 7.41795C9.92973 7.44408 9.93136 7.46368 9.93136 7.47674C9.95097 7.47674 9.96731 7.47837 9.98038 7.48164C9.99345 7.48491 10.0098 7.48654 10.0294 7.48654C10.1928 7.48654 10.366 7.43755 10.549 7.33955C10.732 7.24156 10.8823 7.12071 11 6.97698Z" fill="#9F4BE8" fillOpacity="0.85" /> </g> <defs> <clipPath id="clip0_2_5927"> <rect width="20" height="20" fill="white" /> </clipPath> </defs> </svg>
