<svg width="32" height="16" viewBox="0 0 32 16" fill="none" xmlns="http://www.w3.org/2000/svg"> <g clipPath="url(#clip0_2_5210)"> <path d="M5.76217 16H22.7568C23.6793 16 24.5225 15.9192 25.2865 15.7576C26.0505 15.5959 26.71 15.2116 27.2649 14.6045C27.8127 14.0054 28.1604 13.29 28.3082 12.4582C28.4559 11.6265 28.5298 10.7061 28.5298 9.69696V6.30303C28.5298 5.29391 28.4559 4.37349 28.3082 3.54175C28.1604 2.71002 27.8127 1.99458 27.2649 1.39541C26.71 0.78837 26.0505 0.40404 25.2865 0.242424C24.5225 0.0808079 23.6793 0 22.7568 0H5.74055C4.83244 0 3.9982 0.0827789 3.23784 0.248337C2.47748 0.413894 1.81982 0.796253 1.26487 1.39541C0.717119 2.00246 0.36937 2.71988 0.221622 3.54767C0.0738739 4.37546 0 5.28209 0 6.26755V9.69696C0 10.7061 0.072072 11.6265 0.216216 12.4582C0.360361 13.29 0.709912 14.0054 1.26487 14.6045C1.81982 15.2116 2.47748 15.5959 3.23784 15.7576C3.9982 15.9192 4.83965 16 5.76217 16ZM5.47028 14.096C4.91532 14.096 4.36937 14.0389 3.83243 13.9246C3.2955 13.8103 2.86127 13.5757 2.52974 13.221C2.20541 12.8584 1.99279 12.3873 1.89189 11.8078C1.791 11.2284 1.74055 10.6312 1.74055 10.0162V6.00739C1.74055 5.38457 1.791 4.77949 1.89189 4.19216C1.99279 3.60483 2.20541 3.13378 2.52974 2.77901C2.85406 2.41635 3.28829 2.17984 3.83243 2.06947C4.37658 1.9591 4.93334 1.90392 5.50271 1.90392H23.0595C23.6144 1.90392 24.1604 1.96108 24.6974 2.07539C25.2343 2.1897 25.6649 2.42424 25.9893 2.77901C26.3208 3.14166 26.537 3.61271 26.6379 4.19216C26.7388 4.77162 26.7892 5.36487 26.7892 5.97191V10.0162C26.7892 10.6312 26.7388 11.2284 26.6379 11.8078C26.537 12.3873 26.3208 12.8584 25.9893 13.221C25.6649 13.5757 25.2343 13.8103 24.6974 13.9246C24.1604 14.0389 23.6144 14.096 23.0595 14.096H5.47028ZM30 11.0569C30.2883 11.0332 30.5874 10.8933 30.8974 10.6371C31.2073 10.3809 31.4686 10.0281 31.6812 9.57871C31.8937 9.12934 32 8.60113 32 7.99408C32 7.39492 31.8937 6.87065 31.6812 6.42128C31.4686 5.97191 31.2073 5.61714 30.8974 5.35698C30.5874 5.09682 30.2883 4.95885 30 4.94308V11.0569Z" fill="#32D365" /> <path d="M4.8973 12.7243H23.6325C24.0073 12.7243 24.31 12.6908 24.5406 12.6238C24.7712 12.5568 24.9622 12.4405 25.1135 12.2749C25.3946 11.9675 25.5352 11.4275 25.5352 10.6548V5.34516C25.5352 4.93521 25.5027 4.6041 25.4379 4.35182C25.373 4.09954 25.2649 3.89062 25.1135 3.72506C24.9622 3.5595 24.7712 3.44322 24.5406 3.37622C24.31 3.3092 24.0073 3.2757 23.6325 3.2757H4.92973C4.54775 3.2757 4.23784 3.3092 4 3.37622C3.76217 3.44322 3.56757 3.5595 3.41622 3.72506C3.27207 3.89062 3.16756 4.10151 3.1027 4.35773C3.03783 4.61396 3.0054 4.95098 3.0054 5.36881V10.6548C3.0054 11.0648 3.03783 11.3959 3.1027 11.6482C3.16756 11.9005 3.27207 12.1094 3.41622 12.2749C3.56757 12.4405 3.76037 12.5568 3.9946 12.6238C4.22883 12.6908 4.52973 12.7243 4.8973 12.7243Z" fill="#00DE76" /> </g> <defs> <clipPath id="clip0_2_5210"> <rect width="32" height="16" fill="white" /> </clipPath> </defs> </svg>
