<svg width="32" height="16" viewBox="0 0 32 16" fill="none" xmlns="http://www.w3.org/2000/svg"> <path d="M5.84431 16H22.5363C24.4737 16 25.996 15.7713 27.0925 14.5933C28.1783 13.4153 28.3806 11.8027 28.3806 9.72123V6.27877C28.3806 4.18585 28.1783 2.57327 27.0925 1.40672C25.9854 0.228735 24.4737 0 22.5363 0H5.81238C3.90685 0 2.38456 0.228735 1.29874 1.40672C0.202262 2.5847 0 4.19728 0 6.24446V9.72123C0 11.8027 0.202262 13.4267 1.28809 14.5933C2.39521 15.7713 3.90685 16 5.84431 16ZM5.54624 13.7584C4.44977 13.7584 3.41717 13.5868 2.82102 12.9578C2.22488 12.3174 2.08649 11.2309 2.08649 10.0415V5.98142C2.08649 4.78056 2.22488 3.68263 2.81038 3.04217C3.40652 2.40172 4.44977 2.2416 5.56753 2.2416H22.8343C23.9415 2.2416 24.9741 2.40172 25.5595 3.04217C26.1557 3.68263 26.2941 4.76912 26.2941 5.95854V10.0415C26.2941 11.2309 26.1557 12.3174 25.5595 12.9578C24.9741 13.5983 23.9415 13.7584 22.8343 13.7584H5.54624ZM5.13107 12.3174H12.487C13.1577 12.3174 13.5409 12.2144 13.8177 11.9171C14.0945 11.6197 14.1903 11.1966 14.1903 10.4989V5.50107C14.1903 4.79199 14.0945 4.36883 13.8177 4.08292C13.5409 3.78556 13.147 3.68263 12.487 3.68263H5.15236C4.47106 3.68263 4.07718 3.78556 3.8004 4.07148C3.53426 4.36883 3.42781 4.80343 3.42781 5.52395V10.4989C3.42781 11.208 3.53426 11.6197 3.8004 11.9171C4.07718 12.2144 4.47106 12.3174 5.13107 12.3174ZM29.9348 11.0936C30.8184 11.0365 32 9.82416 32 7.99428C32 6.17584 30.8184 4.95211 29.9348 4.89492V11.0936Z" fill="#3358BF" /> </svg>
