<svg width="32" height="16" viewBox="0 0 32 16" fill="none" xmlns="http://www.w3.org/2000/svg"> <g clipPath="url(#clip0_2_5234)"> <path d="M5.76217 15.9941H10.627C10.555 15.7893 10.5153 15.5943 10.5081 15.4092C10.5009 15.224 10.5189 15.0251 10.5622 14.8124C10.6054 14.5996 10.6703 14.3594 10.7568 14.0916H5.47028C4.91532 14.0916 4.36937 14.0344 3.83243 13.9202C3.2955 13.806 2.86127 13.5716 2.52974 13.2171C2.20541 12.8547 1.99279 12.384 1.89189 11.805C1.791 11.226 1.74055 10.6293 1.74055 10.0148V6.00894C1.74055 5.38658 1.791 4.78196 1.89189 4.19506C1.99279 3.60817 2.20541 3.13747 2.52974 2.78297C2.85406 2.42059 3.28829 2.18425 3.83243 2.07396C4.37658 1.96367 4.93334 1.90853 5.50271 1.90853H12.8109L14.2054 0.00604248H5.74055C4.83244 0.00604248 3.9982 0.0887596 3.23784 0.254194C2.47748 0.419628 1.81982 0.8017 1.26487 1.40041C0.717119 2.00701 0.36937 2.72389 0.221622 3.55106C0.0738739 4.37823 0 5.28418 0 6.2689V9.69574C0 10.7041 0.072072 11.6239 0.216216 12.455C0.360361 13.286 0.709912 14.0009 1.26487 14.5996C1.81982 15.2063 2.47748 15.5903 3.23784 15.7518C3.9982 15.9133 4.83965 15.9941 5.76217 15.9941ZM14.5946 15.9941H22.7568C23.6793 15.9941 24.5225 15.9133 25.2865 15.7518C26.0505 15.5903 26.71 15.2063 27.2649 14.5996C27.8127 14.0009 28.1604 13.286 28.3082 12.455C28.4559 11.6239 28.5298 10.7041 28.5298 9.69574V6.30435C28.5298 5.29599 28.4559 4.37626 28.3082 3.54514C28.1604 2.71404 27.8127 1.99913 27.2649 1.40041C26.71 0.793822 26.0505 0.40978 25.2865 0.248285C24.5225 0.0867901 23.6793 0.00604248 22.7568 0.00604248H18.173C18.2379 0.19511 18.2739 0.382208 18.2811 0.567337C18.2883 0.752465 18.2721 0.951379 18.2324 1.16408C18.1928 1.37678 18.1297 1.62493 18.0432 1.90853H23.0595C23.6144 1.90853 24.1604 1.96565 24.6974 2.07988C25.2343 2.19411 25.6649 2.42847 25.9893 2.78297C26.3208 3.14535 26.537 3.61605 26.6379 4.19506C26.7388 4.77409 26.7892 5.36689 26.7892 5.97348V10.0148C26.7892 10.6293 26.7388 11.226 26.6379 11.805C26.537 12.384 26.3208 12.8547 25.9893 13.2171C25.6649 13.5716 25.2343 13.806 24.6974 13.9202C24.1604 14.0344 23.6144 14.0916 23.0595 14.0916H15.9893L14.5946 15.9941ZM30 11.0547C30.2883 11.031 30.5874 10.8912 30.8974 10.6352C31.2073 10.3791 31.4686 10.0266 31.6812 9.57757C31.8937 9.12854 32 8.60073 32 7.99414C32 7.39542 31.8937 6.87155 31.6812 6.42251C31.4686 5.97348 31.2073 5.61898 30.8974 5.35902C30.5874 5.09905 30.2883 4.96118 30 4.94543V11.0547Z" fill="#19D72F" fill-opacity="0.88" /> <path d="M4.8973 12.7208H11.2325L11.8055 11.0192H10.2703C9.72974 11.0192 9.26668 10.8144 8.88109 10.4047C8.49551 9.99507 8.30271 9.49089 8.30271 8.89217C8.30271 8.37224 8.46487 7.88775 8.7892 7.43872L11.8162 3.27924H4.92973C4.54775 3.27924 4.23784 3.31271 4 3.37967C3.76217 3.44663 3.56757 3.56283 3.41622 3.72827C3.27207 3.8937 3.16756 4.10443 3.1027 4.36046C3.03783 4.61649 3.0054 4.95326 3.0054 5.37079V10.6529C3.0054 11.0625 3.03783 11.3934 3.1027 11.6455C3.16756 11.8976 3.27207 12.1063 3.41622 12.2718C3.56757 12.4372 3.76037 12.5534 3.9946 12.6204C4.22883 12.6873 4.52973 12.7208 4.8973 12.7208ZM16.9838 12.7208H23.6325C24.0073 12.7208 24.31 12.6873 24.5406 12.6204C24.7712 12.5534 24.9622 12.4372 25.1135 12.2718C25.3946 11.9645 25.5352 11.4249 25.5352 10.6529V5.34716C25.5352 4.93751 25.5027 4.60664 25.4379 4.35455C25.373 4.10246 25.2649 3.8937 25.1135 3.72827C24.9622 3.56283 24.7712 3.44663 24.5406 3.37967C24.31 3.31271 24.0073 3.27924 23.6325 3.27924H17.5675L16.9947 4.98084H18.5189C19.0667 4.98084 19.5334 5.18566 19.919 5.59531C20.3045 6.00495 20.4973 6.50913 20.4973 7.10785C20.4973 7.62778 20.3352 8.11227 20.0109 8.5613L16.9838 12.7208Z" fill="#28CD41" /> <path d="M9.77298 8.89219C9.77298 9.04187 9.82163 9.16398 9.91893 9.25851C10.0162 9.35304 10.1333 9.40031 10.2703 9.40031H13.9352L11.9784 15.1432C11.8991 15.3953 11.9081 15.6001 12.0054 15.7578C12.1027 15.9153 12.2415 15.996 12.4216 16C12.6018 16.0039 12.764 15.9074 12.9082 15.7104L18.8324 7.56872C18.9549 7.3954 19.0162 7.24179 19.0162 7.10787C19.0162 6.95819 18.9676 6.83608 18.8703 6.74154C18.773 6.64702 18.6559 6.59975 18.5189 6.59975H14.8541L16.8108 0.856828C16.8973 0.604738 16.8901 0.399915 16.7892 0.242358C16.6883 0.0848022 16.5496 0.00405475 16.373 0.00011585C16.1964 -0.00382305 16.0325 0.0926803 15.8811 0.289626L9.95677 8.41952C9.83424 8.60071 9.77298 8.75827 9.77298 8.89219Z" fill="#F7ADF2" fill-opacity="0.54" /> </g> <defs> <clipPath id="clip0_2_5234"> <rect width="32" height="16" fill="white" /> </clipPath> </defs> </svg>
