<svg t="1730272911386" className="icon" viewBox="0 0 1024 1024" version="1.1" xmlns="http://www.w3.org/2000/svg" p-id="6248" width="32" height="32"><path d="M618.666667 744.32L658.986667 704l122.026666 122.026667a28.586667 28.586667 0 0 1 0 40.32 28.586667 28.586667 0 0 1-40.32 0zM405.333333 744.32L365.013333 704l-122.026666 122.026667a28.586667 28.586667 0 0 0 0 40.32 28.586667 28.586667 0 0 0 40.32 0z" fill="#90A4AE" p-id="6249"></path><path d="M512 512m-384 0a384 384 0 1 0 768 0 384 384 0 1 0-768 0Z" fill="#AB47BC" p-id="6250"></path><path d="M512 512m-298.666667 0a298.666667 298.666667 0 1 0 597.333334 0 298.666667 298.666667 0 1 0-597.333334 0Z" fill="#FFFFFF" p-id="6251"></path><path d="M533.333333 512h-42.666666v-170.666667a21.333333 21.333333 0 0 1 21.333333-21.333333 21.333333 21.333333 0 0 1 21.333333 21.333333z" fill="#37474F" p-id="6252"></path><path d="M496.853333 496.853333l30.293334 30.293334-106.666667 105.6a21.333333 21.333333 0 0 1-30.08 0 21.333333 21.333333 0 0 1 0-30.08z" fill="#37474F" p-id="6253"></path><path d="M507.242667 516.842667l9.514666-9.493334L652.8 643.413333l-9.514667 9.493334z" fill="#F44336" p-id="6254"></path><path d="M512 512m-42.666667 0a42.666667 42.666667 0 1 0 85.333334 0 42.666667 42.666667 0 1 0-85.333334 0Z" fill="#37474F" p-id="6255"></path><path d="M512 512m-21.333333 0a21.333333 21.333333 0 1 0 42.666666 0 21.333333 21.333333 0 1 0-42.666666 0Z" fill="#AB47BC" p-id="6256"></path><path d="M892.586667 347.306667L677.973333 131.626667c68.906667-69.333333 150.826667-55.04 210.133334 4.48s73.386667 141.226667 4.48 211.2zM347.306667 131.413333L131.626667 346.026667C62.293333 277.333333 76.586667 195.2 136.106667 135.893333s141.226667-73.386667 211.2-4.48zM533.333333 85.333333h-42.666666a21.333333 21.333333 0 0 0-21.333334 21.333334v21.333333h85.333334V106.666667a21.333333 21.333333 0 0 0-21.333334-21.333334z" fill="#90A4AE" p-id="6257"></path><path d="M512 256m-21.333333 0a21.333333 21.333333 0 1 0 42.666666 0 21.333333 21.333333 0 1 0-42.666666 0Z" fill="#37474F" p-id="6258"></path><path d="M512 768m-21.333333 0a21.333333 21.333333 0 1 0 42.666666 0 21.333333 21.333333 0 1 0-42.666666 0Z" fill="#37474F" p-id="6259"></path><path d="M768 512m-21.333333 0a21.333333 21.333333 0 1 0 42.666666 0 21.333333 21.333333 0 1 0-42.666666 0Z" fill="#37474F" p-id="6260"></path><path d="M256 512m-21.333333 0a21.333333 21.333333 0 1 0 42.666666 0 21.333333 21.333333 0 1 0-42.666666 0Z" fill="#37474F" p-id="6261"></path><path d="M290.346667 384m-10.666667 0a10.666667 10.666667 0 1 0 21.333333 0 10.666667 10.666667 0 1 0-21.333333 0Z" fill="#35495D" p-id="6262"></path><path d="M733.653333 640m-10.666666 0a10.666667 10.666667 0 1 0 21.333333 0 10.666667 10.666667 0 1 0-21.333333 0Z" fill="#35495D" p-id="6263"></path><path d="M640 290.346667m-10.666667 0a10.666667 10.666667 0 1 0 21.333334 0 10.666667 10.666667 0 1 0-21.333334 0Z" fill="#35495D" p-id="6264"></path><path d="M384 733.653333m-10.666667 0a10.666667 10.666667 0 1 0 21.333334 0 10.666667 10.666667 0 1 0-21.333334 0Z" fill="#35495D" p-id="6265"></path><path d="M290.346667 640m-10.666667 0a10.666667 10.666667 0 1 0 21.333333 0 10.666667 10.666667 0 1 0-21.333333 0Z" fill="#35495D" p-id="6266"></path><path d="M733.653333 384m-10.666666 0a10.666667 10.666667 0 1 0 21.333333 0 10.666667 10.666667 0 1 0-21.333333 0Z" fill="#35495D" p-id="6267"></path><path d="M384 290.346667m-10.666667 0a10.666667 10.666667 0 1 0 21.333334 0 10.666667 10.666667 0 1 0-21.333334 0Z" fill="#35495D" p-id="6268"></path><path d="M640 733.653333m-10.666667 0a10.666667 10.666667 0 1 0 21.333334 0 10.666667 10.666667 0 1 0-21.333334 0Z" fill="#35495D" p-id="6269"></path></svg>
