<svg width="27" height="18" viewBox="0 0 27 18" fill="none" xmlns="http://www.w3.org/2000/svg"> <g clipPath="url(#clip0_2_17528)"> <path d="M4.55297 16.8151H15.1193C16.0439 16.8151 16.8772 16.6019 17.6193 16.1755C18.3615 15.749 18.9507 15.1745 19.3869 14.4518C19.8231 13.7292 20.0412 12.9154 20.0412 12.0104C20.0412 11.112 19.8183 10.3063 19.3723 9.59344C18.9263 8.88055 18.3176 8.3174 17.5461 7.90399C16.7747 7.49057 15.9039 7.28061 14.9338 7.27411C14.5497 6.54494 14.0761 5.92319 13.5129 5.40887C12.9498 4.89455 12.3199 4.50067 11.6232 4.22723C10.9266 3.95379 10.1845 3.81708 9.39672 3.81708C8.60246 3.81708 7.84888 3.96193 7.13598 4.25165C6.4231 4.54136 5.7867 4.94338 5.2268 5.4577C4.66691 5.97202 4.21281 6.57424 3.8645 7.26434C3.5162 7.95444 3.30298 8.69989 3.22485 9.50067C2.39803 9.74806 1.73723 10.1973 1.24243 10.8483C0.74764 11.4994 0.500244 12.2546 0.500244 13.114C0.500244 13.8497 0.671142 14.4942 1.01294 15.0475C1.35474 15.6009 1.83 16.0339 2.43872 16.3464C3.04744 16.6589 3.75219 16.8151 4.55297 16.8151ZM21.174 11.8151C21.9358 11.6849 22.6177 11.4489 23.2199 11.1071C23.8221 10.7653 24.3332 10.3682 24.7531 9.91571C25.1731 9.46323 25.4921 8.99937 25.7102 8.52411C25.9283 8.04885 26.0373 7.60939 26.0373 7.20575C26.0373 7.01694 25.9966 6.86069 25.9152 6.737C25.8339 6.6133 25.7151 6.55145 25.5588 6.55145C25.3961 6.55145 25.204 6.60353 24.9826 6.7077C24.7613 6.81186 24.4911 6.9144 24.1721 7.01532C23.8531 7.11623 23.469 7.16669 23.0197 7.16669C22.2255 7.16669 21.537 7.01695 20.9543 6.71747C20.3717 6.41799 19.9224 5.99644 19.6066 5.45282C19.2909 4.9092 19.133 4.27606 19.133 3.5534C19.133 3.1172 19.19 2.72495 19.3039 2.37665C19.4179 2.02834 19.5318 1.72072 19.6457 1.45379C19.7597 1.18686 19.8166 0.968765 19.8166 0.799495C19.8166 0.643245 19.7662 0.519547 19.6652 0.428401C19.5644 0.337255 19.4163 0.294937 19.2209 0.301448C18.7717 0.320979 18.3046 0.452815 17.8195 0.696956C17.3345 0.941096 16.8723 1.27638 16.4328 1.70282C15.9934 2.12925 15.6125 2.62241 15.2902 3.18231C14.968 3.7422 14.7417 4.34767 14.6115 4.99872C14.7613 5.13543 14.9078 5.30144 15.051 5.49676C15.1942 5.69207 15.3277 5.91668 15.4514 6.17059C16.2717 6.23569 17.0269 6.42775 17.717 6.74676C18.4072 7.06577 19.0094 7.48244 19.5236 7.99676C20.038 8.51108 20.4384 9.09377 20.7248 9.74481C21.0113 10.3959 21.161 11.086 21.174 11.8151Z" fill="white" /> </g> <defs> <clipPath id="clip0_2_17528"> <rect width="25.5371" height="17.14" fill="white" transform="translate(0.500244 0.300797)" /> </clipPath> </defs> </svg>
