<svg width="29" height="23" viewBox="0 0 29 23" fill="none" xmlns="http://www.w3.org/2000/svg"> <g clipPath="url(#clip0_2_17499)"> <path d="M4.33588 19.9688H14.9023C15.8333 19.9688 16.6715 19.7556 17.4169 19.3291C18.1624 18.9027 18.7532 18.3249 19.1894 17.5957C19.6256 16.8666 19.8437 16.0495 19.8437 15.1446C19.8437 14.2461 19.6191 13.4388 19.1698 12.7227C18.7206 12.0066 18.1103 11.4402 17.3388 11.0235C16.5673 10.6068 15.6966 10.3952 14.7265 10.3887C14.3489 9.67254 13.8818 9.05731 13.3251 8.54299C12.7685 8.02866 12.1386 7.63152 11.4355 7.35158C10.7324 7.07163 9.97716 6.93166 9.16986 6.93166C8.37559 6.93166 7.62201 7.07651 6.90912 7.36623C6.19623 7.65594 5.55983 8.05796 4.99994 8.57228C4.44004 9.0866 3.98431 9.68881 3.63275 10.3789C3.28119 11.069 3.06635 11.8145 2.98822 12.6153C2.17442 12.8626 1.51687 13.3118 1.01556 13.9629C0.514262 14.614 0.263611 15.3757 0.263611 16.2481C0.263611 16.9772 0.432882 17.6201 0.771423 18.1768C1.10996 18.7334 1.58522 19.1712 2.1972 19.4903C2.80918 19.8093 3.52207 19.9688 4.33588 19.9688Z" fill="white" /> <path d="M20.9667 14.6074C21.6828 14.1191 22.2476 13.5153 22.6611 12.7959C23.0745 12.0765 23.2812 11.2871 23.2812 10.4278C23.2812 9.52933 23.0663 8.71388 22.6366 7.98146C22.2069 7.24904 21.6259 6.66636 20.8935 6.23342C20.161 5.80047 19.3489 5.584 18.457 5.584C17.5715 5.584 16.7659 5.80047 16.04 6.23342C15.3141 6.66636 14.7493 7.23764 14.3456 7.94728C14.5475 8.15561 14.7363 8.37697 14.912 8.61135C15.0878 8.84572 15.2506 9.10614 15.4003 9.3926C16.4745 9.47723 17.412 9.74578 18.2128 10.1983C19.0136 10.6508 19.65 11.253 20.122 12.0049C20.594 12.7568 20.8756 13.6243 20.9667 14.6074ZM12.7929 5.91603C12.9556 6.07228 13.1509 6.15041 13.3788 6.15041C13.6067 6.15041 13.7955 6.07228 13.9452 5.91603C14.0949 5.75978 14.1714 5.56935 14.1747 5.34475C14.178 5.12013 14.1015 4.93296 13.9452 4.78322L12.4413 3.26955C12.2851 3.1133 12.0963 3.03518 11.8749 3.03518C11.6536 3.03518 11.4648 3.1133 11.3085 3.26955C11.1522 3.42579 11.0725 3.61622 11.0693 3.84084C11.066 4.06544 11.1458 4.25587 11.3085 4.41213L12.7929 5.91603ZM18.457 4.03127C18.6783 4.03127 18.8687 3.94989 19.0282 3.78713C19.1877 3.62437 19.2675 3.43556 19.2675 3.22072V1.11134C19.2675 0.889989 19.1877 0.69956 19.0282 0.540055C18.8687 0.380549 18.6783 0.300797 18.457 0.300797C18.2356 0.300797 18.0452 0.380549 17.8857 0.540055C17.7262 0.69956 17.6464 0.889989 17.6464 1.11134V3.22072C17.6464 3.43556 17.7262 3.62437 17.8857 3.78713C18.0452 3.94989 18.2356 4.03127 18.457 4.03127ZM25.6445 11.2383H27.7636C27.9849 11.2383 28.1737 11.1585 28.33 10.999C28.4863 10.8395 28.5644 10.6491 28.5644 10.4278C28.5644 10.1999 28.4863 10.0078 28.33 9.85158C28.1737 9.69533 27.9849 9.61721 27.7636 9.61721H25.6445C25.4296 9.61721 25.2408 9.69533 25.0781 9.85158C24.9153 10.0078 24.8339 10.1999 24.8339 10.4278C24.8339 10.6491 24.9153 10.8395 25.0781 10.999C25.2408 11.1585 25.4296 11.2383 25.6445 11.2383ZM22.9687 5.91603C23.1184 6.07228 23.3089 6.15041 23.54 6.15041C23.7711 6.15041 23.9647 6.07228 24.121 5.91603L25.6152 4.41213C25.7714 4.25587 25.8495 4.06544 25.8495 3.84084C25.8495 3.61622 25.7714 3.42579 25.6152 3.26955C25.4589 3.1133 25.2701 3.03518 25.0488 3.03518C24.8274 3.03518 24.6386 3.1133 24.4824 3.26955L22.9687 4.78322C22.8124 4.93296 22.7359 5.12013 22.7392 5.34475C22.7425 5.56935 22.819 5.75978 22.9687 5.91603ZM24.4824 17.5957C24.6386 17.752 24.8274 17.8268 25.0488 17.8203C25.2701 17.8138 25.4589 17.7357 25.6152 17.586C25.7714 17.4297 25.8495 17.2393 25.8495 17.0147C25.8495 16.7901 25.7714 16.5997 25.6152 16.4434L24.1015 14.9492C23.9452 14.7995 23.7564 14.723 23.5351 14.7197C23.3138 14.7165 23.125 14.793 22.9687 14.9492C22.8124 15.1055 22.7343 15.2959 22.7343 15.5205C22.7343 15.7451 22.8124 15.9355 22.9687 16.0918L24.4824 17.5957Z" fill="#FFCC00" /> </g> <defs> <clipPath id="clip0_2_17499"> <rect width="28.3008" height="22.4902" fill="white" transform="translate(0.263611 0.300797)" /> </clipPath> </defs> </svg>
