<svg t="1732975435597" class="icon" viewBox="0 0 1024 1024" version="1.1" xmlns="http://www.w3.org/2000/svg" p-id="23349" data-spm-anchor-id="a313x.search_index.0.i5.2d353a81nM9eKA" width="32" height="32"><path d="M234.624 170.581333a149.333333 149.333333 0 0 0-149.333333 149.333334v42.666666a149.333333 149.333333 0 0 0 149.333333 149.333334h554.666667a149.333333 149.333333 0 0 0 149.333333-149.333334v-42.666666a149.333333 149.333333 0 0 0-149.333333-149.333334h-554.666667z m0 85.333334h554.666667a64 64 0 0 1 64 64v42.666666a64 64 0 0 1-64 64h-554.666667a64 64 0 0 1-64-64v-42.666666a64 64 0 0 1 64-64z m21.333333 42.666666a42.666667 42.666667 0 1 0 0 85.333334 42.666667 42.666667 0 0 0 0-85.333334z m128 0a42.666667 42.666667 0 1 0 0 85.333334 42.666667 42.666667 0 0 0 0-85.333334z" fill="#1296db" p-id="23350" data-spm-anchor-id="a313x.search_index.0.i2.2d353a81nM9eKA" class=""></path><path d="M469.333333 512l-0.170666 93.482667a122.368 122.368 0 0 0-78.037334 77.354666L128 682.666667a42.666667 42.666667 0 0 0 0 85.333333l263.850667-0.170667C408.405333 818.176 457.898667 853.333333 512 853.333333c54.101333 0 100.010667-32.938667 120.576-84.949333L896 768a42.666667 42.666667 0 0 0 0-85.333333l-263.296 0.128a128.042667 128.042667 0 0 0-77.824-77.824L554.666667 512h-85.333334z m42.666667 170.666667a42.666667 42.666667 0 1 1 0 85.333333 42.666667 42.666667 0 0 1 0-85.333333z" fill="#1296db" fill-opacity=".4" p-id="23351" data-spm-anchor-id="a313x.search_index.0.i4.2d353a81nM9eKA" class=""></path></svg>
