<svg width="23" height="26" viewBox="0 0 23 26" fill="none" xmlns="http://www.w3.org/2000/svg"> <g clipPath="url(#clip0_2_17429)"> <path d="M5.24878 17.5488H17.3679C18.1687 17.5488 18.9093 17.4088 19.5896 17.1289C20.27 16.849 20.8624 16.46 21.3669 15.9619C21.8715 15.4638 22.2621 14.8844 22.5388 14.2236C22.8155 13.5628 22.9538 12.8581 22.9538 12.1094C22.9538 11.3281 22.8057 10.6103 22.5095 9.95606C22.2133 9.30176 21.7999 8.73209 21.2693 8.24707C20.7387 7.76204 20.1186 7.38606 19.4089 7.11914C18.6993 6.85221 17.931 6.71875 17.1042 6.71875C16.7006 5.91797 16.1846 5.21973 15.5564 4.62403C14.9282 4.02832 14.2136 3.56771 13.4128 3.24219C12.612 2.91667 11.7396 2.75391 10.7956 2.75391C9.87768 2.75391 9.01343 2.92155 8.20289 3.25684C7.39233 3.59212 6.66805 4.05599 6.03003 4.64844C5.39201 5.24088 4.87606 5.93099 4.48218 6.71875C4.0883 7.50651 3.85229 8.35286 3.77417 9.25782C3.18172 9.42708 2.65112 9.7054 2.18238 10.0928C1.71362 10.4801 1.34253 10.9505 1.06909 11.5039C0.795654 12.0573 0.658936 12.679 0.658936 13.3691C0.658936 14.1374 0.8396 14.8389 1.20093 15.4736C1.56225 16.1084 2.08472 16.613 2.76832 16.9873C3.45191 17.3616 4.27873 17.5488 5.24878 17.5488Z" fill="white" /> <path d="M5.50269 22.1191L6.77222 19.9121C6.86336 19.7624 6.88778 19.611 6.84546 19.458C6.80314 19.305 6.71037 19.1862 6.56714 19.1016C6.4174 19.0169 6.26766 18.9958 6.11792 19.0381C5.96818 19.0804 5.84774 19.1765 5.7566 19.3262L4.4773 21.5527C4.39266 21.6894 4.36988 21.8343 4.40894 21.9873C4.448 22.1403 4.54565 22.2591 4.70191 22.3438C4.84513 22.4219 4.99487 22.4398 5.15113 22.3975C5.30737 22.3552 5.42456 22.2624 5.50269 22.1191ZM7.77808 24.9023L10.6589 19.9023C10.7436 19.7591 10.7664 19.6126 10.7273 19.4629C10.6883 19.3132 10.6004 19.196 10.4636 19.1113C10.3204 19.0267 10.1707 19.0039 10.0144 19.043C9.85815 19.0821 9.73771 19.1765 9.65308 19.3262L6.79175 24.3066C6.70711 24.4564 6.68433 24.6078 6.72339 24.7607C6.76245 24.9137 6.8536 25.0325 6.99683 25.1172C7.14005 25.1953 7.28491 25.2149 7.4314 25.1758C7.57788 25.1367 7.69344 25.0456 7.77808 24.9023ZM13.2761 22.1094L14.5456 19.9023C14.6368 19.7526 14.6612 19.6012 14.6189 19.4482C14.5766 19.2953 14.4806 19.1765 14.3308 19.0918C14.1876 19.0071 14.0394 18.986 13.8864 19.0283C13.7334 19.0706 13.6146 19.1667 13.53 19.3164L12.2507 21.543C12.1661 21.6797 12.1433 21.8246 12.1823 21.9775C12.2214 22.1305 12.3158 22.2493 12.4655 22.334C12.6088 22.4121 12.7586 22.43 12.9148 22.3877C13.071 22.3454 13.1915 22.2526 13.2761 22.1094ZM15.5417 24.8926L18.4323 19.8926C18.517 19.7493 18.5398 19.6028 18.5007 19.4531C18.4617 19.3034 18.3705 19.1862 18.2273 19.1016C18.0906 19.0169 17.9441 18.9941 17.7878 19.0332C17.6316 19.0723 17.5111 19.1667 17.4265 19.3164L14.5554 24.2969C14.4708 24.4466 14.448 24.598 14.487 24.751C14.5261 24.904 14.6173 25.0228 14.7605 25.1074C14.9037 25.1855 15.0486 25.2051 15.195 25.166C15.3416 25.1269 15.4571 25.0358 15.5417 24.8926Z" fill="#55BEF0" /> </g> <defs> <clipPath id="clip0_2_17429"> <rect width="22.2949" height="24.541" fill="white" transform="translate(0.658936 0.654297)" /> </clipPath> </defs> </svg>
