<svg width="18" height="20" viewBox="0 0 18 20" fill="none" xmlns="http://www.w3.org/2000/svg"> <path d="M12.1445 18.8976H5.85596C4.64087 18.8976 3.6543 17.9232 3.6543 16.7231V3.2769C3.6543 2.07681 4.64087 1.10242 5.85596 1.10242H12.1445C13.3596 1.10242 14.3462 2.07681 14.3462 3.2769V16.7231C14.3462 17.9232 13.3596 18.8976 12.1445 18.8976ZM5.85596 2.62151C5.48901 2.62151 5.19238 2.91448 5.19238 3.2769V16.7231C5.19238 17.0855 5.48901 17.3785 5.85596 17.3785H12.1445C12.5115 17.3785 12.8081 17.0855 12.8081 16.7231V3.2769C12.8081 2.91448 12.5115 2.62151 12.1445 2.62151H5.85596Z" fill="#E98F36" /> <path d="M15.7681 15.4774H13.5796C13.1555 15.4774 12.8105 15.1367 12.8105 14.7179C12.8105 14.2991 13.1555 13.9583 13.5796 13.9583H15.7681C16.1284 13.9583 16.4316 13.5504 16.4316 13.0686V6.93144C16.4316 6.44967 16.1284 6.04168 15.7681 6.04168H13.5774C13.1533 6.04168 12.8083 5.70097 12.8083 5.28213C12.8083 4.86329 13.1533 4.52258 13.5774 4.52258H15.7681C16.9832 4.52258 17.9697 5.60331 17.9697 6.93144V13.0686C17.9697 14.3967 16.9832 15.4774 15.7681 15.4774ZM4.42358 15.4774H2.23291C1.01782 15.4774 0.03125 14.3967 0.03125 13.0686V6.93144C0.03125 5.60331 1.01782 4.52258 2.23291 4.52258H4.42139C4.84546 4.52258 5.19043 4.86329 5.19043 5.28213C5.19043 5.70097 4.84546 6.04168 4.42139 6.04168H2.23291C1.87256 6.04168 1.56934 6.44967 1.56934 6.93144V13.0686C1.56934 13.5504 1.87256 13.9583 2.23291 13.9583H4.42358C4.84766 13.9583 5.19263 14.2991 5.19263 14.7179C5.19263 15.1367 4.84766 15.4774 4.42358 15.4774Z" fill="#E98F36" /> </svg>
