<svg width="30" height="28" viewBox="0 0 30 28" fill="none" xmlns="http://www.w3.org/2000/svg"> <g clipPath="url(#clip0_2_17508)"> <path d="M4.9863 20.1196H15.5527C16.4772 20.1196 17.3105 19.908 18.0527 19.4849C18.7949 19.0617 19.3841 18.4871 19.8203 17.7612C20.2565 17.0353 20.4745 16.2232 20.4745 15.3247C20.4745 14.4263 20.2516 13.6206 19.8056 12.9077C19.3597 12.1948 18.751 11.6301 17.9794 11.2134C17.208 10.7967 16.3372 10.5851 15.3671 10.5786C14.9831 9.85596 14.5094 9.23748 13.9462 8.72316C13.3831 8.20884 12.7532 7.81496 12.0566 7.54152C11.36 7.26808 10.6178 7.13137 9.83005 7.13137C9.03578 7.13137 8.28382 7.27459 7.57419 7.56105C6.86456 7.84751 6.22816 8.24953 5.66501 8.76711C5.10186 9.28469 4.64613 9.88688 4.29782 10.5737C3.94951 11.2606 3.73955 12.0044 3.66794 12.8052C2.83461 13.0526 2.17217 13.5034 1.68063 14.1577C1.1891 14.812 0.943329 15.5689 0.943329 16.4282C0.943329 17.1574 1.1126 17.8003 1.45114 18.357C1.78968 18.9136 2.26331 19.3465 2.87204 19.6558C3.48077 19.965 4.18552 20.1196 4.9863 20.1196Z" fill="white" /> <path d="M21.5976 14.8071C22.3138 14.3188 22.8785 13.715 23.2919 12.9956C23.7054 12.2762 23.9121 11.4868 23.9121 10.6275C23.9121 9.72903 23.6973 8.91359 23.2675 8.18117C22.8379 7.44875 22.2568 6.86606 21.5244 6.43312C20.792 6.00018 19.9798 5.78371 19.0878 5.78371C18.2024 5.78371 17.3968 6.00018 16.6708 6.43312C15.945 6.86606 15.3802 7.43735 14.9765 8.14699C15.1783 8.35532 15.3671 8.57667 15.5429 8.81105C15.7187 9.04543 15.8815 9.30584 16.0312 9.5923C17.1054 9.67694 18.0429 9.9455 18.8437 10.398C19.6445 10.8505 20.2809 11.4527 20.7529 12.2046C21.2249 12.9565 21.5065 13.824 21.5976 14.8071ZM13.4238 6.11574C13.5866 6.27199 13.7819 6.35012 14.0097 6.35012C14.2376 6.35012 14.4264 6.27199 14.5761 6.11574C14.7259 5.95949 14.8024 5.76906 14.8056 5.54445C14.8089 5.31984 14.7324 5.12941 14.5761 4.97316L13.0722 3.46926C12.916 3.313 12.7272 3.23488 12.5058 3.23488C12.2845 3.23488 12.0957 3.313 11.9394 3.46926C11.7832 3.6255 11.7034 3.81593 11.7001 4.04055C11.6969 4.26515 11.7767 4.45558 11.9394 4.61184L13.4238 6.11574ZM19.0878 4.23098C19.3092 4.23098 19.4997 4.1496 19.6591 3.98684C19.8187 3.82407 19.8984 3.63527 19.8984 3.42043V1.31105C19.8984 1.08318 19.8187 0.891129 19.6591 0.734879C19.4997 0.578629 19.3092 0.500504 19.0878 0.500504C18.8665 0.500504 18.6761 0.578629 18.5165 0.734879C18.3571 0.891129 18.2773 1.08318 18.2773 1.31105V3.42043C18.2773 3.63527 18.3571 3.82407 18.5165 3.98684C18.6761 4.1496 18.8665 4.23098 19.0878 4.23098ZM23.5995 6.11574C23.7493 6.27199 23.9398 6.35012 24.1708 6.35012C24.402 6.35012 24.5957 6.27199 24.7519 6.11574L26.246 4.61184C26.4023 4.45558 26.4804 4.26515 26.4804 4.04055C26.4804 3.81593 26.4023 3.6255 26.246 3.46926C26.0898 3.313 25.901 3.23488 25.6796 3.23488C25.4583 3.23488 25.2695 3.313 25.1132 3.46926L23.5995 4.97316C23.4433 5.12941 23.3669 5.31984 23.3701 5.54445C23.3733 5.76906 23.4498 5.95949 23.5995 6.11574ZM26.2753 11.438H28.3945C28.6159 11.438 28.8047 11.3582 28.9609 11.1987C29.1172 11.0392 29.1953 10.8488 29.1953 10.6275C29.1953 10.3996 29.1172 10.2075 28.9609 10.0513C28.8047 9.89503 28.6159 9.81691 28.3945 9.81691H26.2753C26.0605 9.81691 25.8717 9.89503 25.7089 10.0513C25.5462 10.2075 25.4648 10.3996 25.4648 10.6275C25.4648 10.8488 25.5462 11.0392 25.7089 11.1987C25.8717 11.3582 26.0605 11.438 26.2753 11.438ZM25.1132 17.7857C25.2695 17.9484 25.4583 18.0265 25.6796 18.02C25.901 18.0135 26.0898 17.9322 26.246 17.7759C26.4023 17.6262 26.4804 17.439 26.4804 17.2144C26.4804 16.9898 26.4023 16.7994 26.246 16.6431L24.7324 15.1489C24.5762 14.9992 24.3874 14.9227 24.166 14.9195C23.9446 14.9162 23.7558 14.9927 23.5995 15.1489C23.4433 15.3052 23.3652 15.4956 23.3652 15.7202C23.3652 15.9448 23.4433 16.1352 23.5995 16.2915L25.1132 17.7857Z" fill="#FFCC00" /> <path d="M4.88863 24.8267L6.15816 22.6196C6.24931 22.4699 6.27373 22.3185 6.23141 22.1655C6.18909 22.0126 6.09632 21.8938 5.95309 21.8091C5.80335 21.7244 5.65361 21.7033 5.50387 21.7456C5.35413 21.7879 5.23369 21.884 5.14254 22.0337L3.86324 24.2505C3.77861 24.3938 3.75582 24.5403 3.79488 24.69C3.83395 24.8397 3.92835 24.9602 4.07809 25.0513C4.22783 25.1294 4.3792 25.1473 4.53219 25.105C4.68519 25.0627 4.804 24.9699 4.88863 24.8267ZM7.94527 27.5708L9.2148 25.3736C9.30595 25.2238 9.33037 25.0724 9.28805 24.9195C9.24573 24.7665 9.15296 24.6444 9.00973 24.5532C8.85999 24.4686 8.71025 24.4475 8.56051 24.4898C8.41077 24.5321 8.29033 24.6281 8.19918 24.7779L6.91988 27.0044C6.83525 27.1411 6.81246 27.286 6.85152 27.439C6.89059 27.592 6.98499 27.7108 7.13473 27.7954C7.28447 27.8801 7.43584 27.8996 7.58883 27.854C7.74183 27.8085 7.86064 27.7141 7.94527 27.5708ZM12.6621 24.8169L13.9316 22.6099C14.0162 22.4602 14.039 22.3088 13.9999 22.1558C13.9609 22.0028 13.8665 21.884 13.7167 21.7993C13.5735 21.7147 13.4254 21.6936 13.2724 21.7359C13.1194 21.7782 13.0006 21.8742 12.916 22.0239L11.6367 24.2407C11.5521 24.384 11.5293 24.5305 11.5683 24.6802C11.6074 24.8299 11.7018 24.9504 11.8515 25.0415C11.9947 25.1196 12.1445 25.1375 12.3007 25.0952C12.457 25.0529 12.5775 24.9602 12.6621 24.8169ZM15.7089 27.5611L16.9882 25.3638C17.0729 25.2141 17.0957 25.0627 17.0566 24.9097C17.0176 24.7567 16.9232 24.6346 16.7734 24.5435C16.6237 24.4588 16.474 24.4377 16.3242 24.48C16.1744 24.5223 16.054 24.6184 15.9628 24.7681L14.6835 26.9946C14.6054 27.1313 14.5859 27.2762 14.6249 27.4292C14.664 27.5822 14.7584 27.701 14.9081 27.7857C15.0514 27.8703 15.2012 27.8898 15.3574 27.8443C15.5136 27.7987 15.6308 27.7043 15.7089 27.5611Z" fill="#55BEF0" /> </g> <defs> <clipPath id="clip0_2_17508"> <rect width="28.252" height="27.5771" fill="white" transform="translate(0.943329 0.300797)" /> </clipPath> </defs> </svg>
