<svg t="1732099125825" className="icon" viewBox="0 0 1024 1024" version="1.1" xmlns="http://www.w3.org/2000/svg" p-id="53776" width="32" height="32"><path d="M515.564 890.92c-18.472 3.696-36.568-12.272-40.176-36.752-33.048-231.588-40.212-467.292-20.852-702.68 1.92-24.924 28.34-42 58.356-36.532 30.024 5.428 51.212 29.904 47.948 53.204-30.08 222.508-35.42 448.528-15.572 673.904 1.952 23.7-11.228 45.136-29.704 48.856zM366.18 808.028c-19.72 6.552-40.24-7.8-45.66-33.508-33.428-162.336-54.876-329.08-63.532-498.844-1.508-26.888 21.096-51.612 49.98-53.216 28.896-1.648 51.82 19.348 51.7 45.028a3229.32 3229.32 0 0 0 36.424 484.276c3.672 25.084-9.184 49.68-28.912 56.264zM199.704 732.7c-20.54 10.452-43.196-1.284-50.54-28.008-25.82-98.064-43.632-144.72-63.66-246.236-5.468-27.772 12.204-59.584 39.232-68.712 27.028-9.176 51.628 7.172 55.224 34.3 14.256 99.588 26.836 146.264 46.92 243.24 5.484 26.4-6.632 54.912-27.176 65.416zM654.928 770.736c-23.696-0.932-43.3-19.568-43.428-42.592-4.564-77.572 12.416-357.408 27.988-431.668 3.212-22.472 28.916-35.144 56.844-27.22 27.932 7.9 46.532 31.964 42.088 52.804-18.836 69.524-38.632 337.38-38.428 411.576-1.336 21.792-21.356 38-45.064 37.1zM800.728 700.416c-21.768-4.312-37.432-24.264-34.568-45.204a2646.152 2646.152 0 0 1 42.04-224.744c4.56-20.152 29.888-29.352 56.052-19.908 26.164 9.428 42.352 32.58 36.648 51.16a2473.96 2473.96 0 0 0-53.452 211.38c-4.192 19.636-24.932 31.608-46.72 27.316z" fill="#8D8BFF" p-id="53777"></path></svg>
