<svg t="1732979973177" class="icon" viewBox="0 0 1024 1024" version="1.1" xmlns="http://www.w3.org/2000/svg" p-id="257588" width="32" height="32"><path d="M735.232 924.3136a210.9952 210.9952 0 1 1 210.944-210.9952 211.2 211.2 0 0 1-210.944 210.9952z m0-369.2032a158.2592 158.2592 0 1 0 158.208 158.208 158.3616 158.3616 0 0 0-158.208-158.208z" fill="#FD5C3F" p-id="257589"></path><path d="M656.0768 686.9504h158.2592v52.736h-158.2592zM501.76 133.12h52.736v316.4672H501.76zM132.5568 475.9552h342.8352v52.736H132.5568z" fill="#FD5C3F" p-id="257590"></path><path d="M185.2928 291.3792h685.7216v52.736H185.2928zM185.2928 660.5824h290.0992v52.736H185.2928z" fill="#FD5C3F" p-id="257591"></path><path d="M893.696 453.12a369.9712 369.9712 0 0 0-365.568-320V80.384a422.912 422.912 0 0 1 417.8432 365.7216z" fill="#FD5C3F" p-id="257592"></path><path d="M684.5952 451.2256C673.4848 272.8448 604.7744 133.12 528.128 133.12V80.384c107.9296 0 195.84 154.5728 209.1008 367.5648z" fill="#FD5C3F" p-id="257593"></path><path d="M471.9104 920.1664a421.7344 421.7344 0 0 1 56.32-839.68V133.12a369.0496 369.0496 0 0 0-49.2544 734.7712z" fill="#FD5C3F" p-id="257594"></path><path d="M461.2096 903.5776c-86.1696-54.9888-144.0768-216.2176-144.0768-401.2032C317.1328 265.728 409.6 80.384 528.128 80.384V133.12c-74.8544 0-158.208 151.6544-158.208 369.2544 0 165.0688 49.2032 311.7568 119.6544 356.7616z" fill="#FD5C3F" p-id="257595"></path></svg>
