<svg width="28" height="28" viewBox="0 0 28 28" fill="none" xmlns="http://www.w3.org/2000/svg"> <path d="M3 20.6328C3 21.4883 3.65625 22.0508 4.76953 22.0508H9.71484C9.80859 24.3125 11.5781 26.293 14.0508 26.293C16.5352 26.293 18.3047 24.3125 18.3984 22.0508H23.3438C24.4453 22.0508 25.1133 21.4883 25.1133 20.6328C25.1133 19.4609 23.918 18.4062 22.9102 17.3633C22.1367 16.5547 21.9258 14.8906 21.832 13.543C21.8203 12.7695 21.7617 12.0547 21.6914 11.3633C21.1406 11.5391 20.4141 11.6445 19.8398 11.6211C19.9102 12.2422 19.957 12.9102 19.9688 13.6953C20.0742 15.9805 20.4727 17.4922 21.3047 18.4297C21.9258 19.1094 22.6172 19.8008 22.8281 20.1406V20.2812H5.27344V20.1406C5.48438 19.8008 6.1875 19.1094 6.79688 18.4297C7.64062 17.4922 8.03906 15.9805 8.14453 13.6953C8.23828 8.57422 9.76172 6.94531 11.7656 6.39453C12.0586 6.32422 12.2227 6.18359 12.2344 5.87891C12.2695 4.66016 12.9727 3.80469 14.0508 3.80469C14.2617 3.80469 14.4609 3.82812 14.625 3.89844C14.8477 3.35938 15.1406 2.85547 15.5156 2.41016C15.082 2.19922 14.5898 2.08203 14.0508 2.08203C12.3281 2.08203 11.0625 3.28906 10.6758 4.82422C7.55859 5.94922 6.36328 8.92578 6.28125 13.543C6.1875 14.8906 5.97656 16.5547 5.20312 17.3633C4.18359 18.4062 3 19.4609 3 20.6328ZM11.543 22.0508H16.5703C16.4766 23.6445 15.4688 24.6406 14.0508 24.6406C12.6445 24.6406 11.625 23.6445 11.543 22.0508ZM19.8281 10.1211C22.043 10.1211 23.8945 8.29297 23.8945 6.06641C23.8945 3.82812 22.043 2 19.8281 2C17.5898 2 15.7617 3.82812 15.7617 6.06641C15.7617 8.29297 17.5898 10.1211 19.8281 10.1211Z" fill="#FF9F0A" /> </svg>
