<svg width="30" height="20" viewBox="0 0 30 20" fill="none" xmlns="http://www.w3.org/2000/svg"> <g clipPath="url(#clip0_2_14379)"> <path d="M3.81433 17.9688H19.4491C19.3124 17.7214 19.1919 17.4659 19.0877 17.2022C18.9836 16.9385 18.899 16.67 18.8338 16.3965H3.83386C3.34558 16.3965 2.97123 16.2663 2.71081 16.0059C2.4504 15.7454 2.32019 15.3613 2.32019 14.8535V5.64454C2.32019 5.13673 2.4504 4.75424 2.71081 4.49708C2.97123 4.23992 3.34558 4.11134 3.83386 4.11134H22.2323C22.7141 4.11134 23.0884 4.23992 23.3553 4.49708C23.6223 4.75424 23.7557 5.13673 23.7557 5.64454V8.74024C24.0031 8.67514 24.2538 8.62957 24.5077 8.60352C24.7616 8.57748 25.035 8.56772 25.328 8.57423V5.55665C25.328 4.55404 25.0709 3.80046 24.5565 3.29591C24.0422 2.79135 23.2772 2.53907 22.2616 2.53907H3.81433C2.79219 2.53907 2.02559 2.79135 1.51453 3.29591C1.00346 3.80046 0.747925 4.55404 0.747925 5.55665V14.9414C0.747925 15.9505 1.00346 16.7074 1.51453 17.2119C2.02559 17.7165 2.79219 17.9688 3.81433 17.9688ZM4.71276 7.97852H5.6112C5.90417 7.97852 6.05065 7.83529 6.05065 7.54884V6.6504C6.05065 6.35743 5.90417 6.21095 5.6112 6.21095H4.71276C4.42631 6.21095 4.28308 6.35743 4.28308 6.6504V7.54884C4.28308 7.83529 4.42631 7.97852 4.71276 7.97852ZM7.8573 7.97852H8.75573C9.04219 7.97852 9.18542 7.83529 9.18542 7.54884V6.6504C9.18542 6.35743 9.04219 6.21095 8.75573 6.21095H7.8573C7.56433 6.21095 7.41784 6.35743 7.41784 6.6504V7.54884C7.41784 7.83529 7.56433 7.97852 7.8573 7.97852ZM11.0018 7.97852H11.8905C12.1835 7.97852 12.3299 7.83529 12.3299 7.54884V6.6504C12.3299 6.35743 12.1835 6.21095 11.8905 6.21095H11.0018C10.7089 6.21095 10.5624 6.35743 10.5624 6.6504V7.54884C10.5624 7.83529 10.7089 7.97852 11.0018 7.97852ZM14.1366 7.97852H15.035C15.328 7.97852 15.4745 7.83529 15.4745 7.54884V6.6504C15.4745 6.35743 15.328 6.21095 15.035 6.21095H14.1366C13.8502 6.21095 13.7069 6.35743 13.7069 6.6504V7.54884C13.7069 7.83529 13.8502 7.97852 14.1366 7.97852ZM17.2811 7.97852H18.1795C18.466 7.97852 18.6092 7.83529 18.6092 7.54884V6.6504C18.6092 6.35743 18.466 6.21095 18.1795 6.21095H17.2811C16.9882 6.21095 16.8417 6.35743 16.8417 6.6504V7.54884C16.8417 7.83529 16.9882 7.97852 17.2811 7.97852ZM20.4256 7.97852H21.3143C21.6073 7.97852 21.7538 7.83529 21.7538 7.54884V6.6504C21.7538 6.35743 21.6073 6.21095 21.3143 6.21095H20.4256C20.1327 6.21095 19.9862 6.35743 19.9862 6.6504V7.54884C19.9862 7.83529 20.1327 7.97852 20.4256 7.97852ZM4.71276 11.1231H5.6112C5.90417 11.1231 6.05065 10.9766 6.05065 10.6836V9.79493C6.05065 9.50196 5.90417 9.35548 5.6112 9.35548H4.71276C4.42631 9.35548 4.28308 9.50196 4.28308 9.79493V10.6836C4.28308 10.9766 4.42631 11.1231 4.71276 11.1231ZM7.8573 11.1231H8.75573C9.04219 11.1231 9.18542 10.9766 9.18542 10.6836V9.79493C9.18542 9.50196 9.04219 9.35548 8.75573 9.35548H7.8573C7.56433 9.35548 7.41784 9.50196 7.41784 9.79493V10.6836C7.41784 10.9766 7.56433 11.1231 7.8573 11.1231ZM11.0018 11.1231H11.8905C12.1835 11.1231 12.3299 10.9766 12.3299 10.6836V9.79493C12.3299 9.50196 12.1835 9.35548 11.8905 9.35548H11.0018C10.7089 9.35548 10.5624 9.50196 10.5624 9.79493V10.6836C10.5624 10.9766 10.7089 11.1231 11.0018 11.1231ZM14.1366 11.1231H15.035C15.328 11.1231 15.4745 10.9766 15.4745 10.6836V9.79493C15.4745 9.50196 15.328 9.35548 15.035 9.35548H14.1366C13.8502 9.35548 13.7069 9.50196 13.7069 9.79493V10.6836C13.7069 10.9766 13.8502 11.1231 14.1366 11.1231ZM17.2811 11.1231H18.1795C18.466 11.1231 18.6092 10.9766 18.6092 10.6836V9.79493C18.6092 9.50196 18.466 9.35548 18.1795 9.35548H17.2811C16.9882 9.35548 16.8417 9.50196 16.8417 9.79493V10.6836C16.8417 10.9766 16.9882 11.1231 17.2811 11.1231ZM20.035 10.918C20.2629 10.638 20.5103 10.3792 20.7772 10.1416C21.0442 9.90398 21.3274 9.69077 21.6268 9.50196C21.5682 9.40431 21.4641 9.35548 21.3143 9.35548H20.4256C20.1327 9.35548 19.9862 9.50196 19.9862 9.79493V10.6934C19.9862 10.765 20.0025 10.8399 20.035 10.918ZM4.71276 14.2676H5.6112C5.90417 14.2676 6.05065 14.1211 6.05065 13.8281V12.9297C6.05065 12.6432 5.90417 12.5 5.6112 12.5H4.71276C4.42631 12.5 4.28308 12.6432 4.28308 12.9297V13.8281C4.28308 14.1211 4.42631 14.2676 4.71276 14.2676ZM7.95495 14.2676H18.4725C18.4921 13.9941 18.5344 13.7126 18.5995 13.4229C18.6646 13.1332 18.7427 12.8679 18.8338 12.627C18.7752 12.5423 18.6743 12.5 18.5311 12.5H7.95495C7.59688 12.5 7.41784 12.6758 7.41784 13.0274V13.7305C7.41784 14.0886 7.59688 14.2676 7.95495 14.2676ZM24.9276 19.8047C25.5982 19.8047 26.2329 19.6745 26.8319 19.4141C27.4309 19.1536 27.9598 18.7956 28.4188 18.3399C28.8778 17.8842 29.2375 17.3568 29.4979 16.7578C29.7583 16.1589 29.8885 15.5209 29.8885 14.8438C29.8885 14.1602 29.76 13.5189 29.5028 12.9199C29.2456 12.321 28.8892 11.7936 28.4334 11.3379C27.9778 10.8822 27.4504 10.5257 26.8514 10.2686C26.2525 10.0114 25.6112 9.88282 24.9276 9.88282C24.2506 9.88282 23.6125 10.0114 23.0135 10.2686C22.4146 10.5257 21.8873 10.8838 21.4315 11.3428C20.9758 11.8018 20.6177 12.3291 20.3573 12.9248C20.0969 13.5205 19.9667 14.1602 19.9667 14.8438C19.9667 15.5273 20.0969 16.1686 20.3573 16.7676C20.6177 17.3665 20.9758 17.8939 21.4315 18.3496C21.8873 18.8053 22.4146 19.1618 23.0135 19.419C23.6125 19.6761 24.2506 19.8047 24.9276 19.8047ZM22.203 15.5957C22.0012 15.5957 21.8254 15.5208 21.6756 15.3711C21.5259 15.2214 21.451 15.0423 21.451 14.834C21.451 14.6257 21.5259 14.4466 21.6756 14.2969C21.8254 14.1472 22.0012 14.0723 22.203 14.0723C22.4178 14.0723 22.6001 14.1472 22.7499 14.2969C22.8997 14.4466 22.9745 14.6257 22.9745 14.834C22.9745 15.0423 22.8997 15.2214 22.7499 15.3711C22.6001 15.5208 22.4178 15.5957 22.203 15.5957ZM24.9276 15.5957C24.7258 15.5957 24.5484 15.5208 24.3954 15.3711C24.2424 15.2214 24.1659 15.0423 24.1659 14.834C24.1659 14.6257 24.2424 14.4466 24.3954 14.2969C24.5484 14.1472 24.7258 14.0723 24.9276 14.0723C25.136 14.0723 25.3166 14.1472 25.4696 14.2969C25.6226 14.4466 25.6991 14.6257 25.6991 14.834C25.6991 15.0423 25.6226 15.2214 25.4696 15.3711C25.3166 15.5208 25.136 15.5957 24.9276 15.5957ZM27.6424 15.5957C27.4276 15.5957 27.247 15.5208 27.1004 15.3711C26.954 15.2214 26.8807 15.0423 26.8807 14.834C26.8807 14.6257 26.954 14.4466 27.1004 14.2969C27.247 14.1472 27.4276 14.0723 27.6424 14.0723C27.8508 14.0723 28.0298 14.1472 28.1795 14.2969C28.3293 14.4466 28.4009 14.6257 28.3944 14.834C28.3944 15.0423 28.3196 15.2214 28.1698 15.3711C28.0201 15.5208 27.8443 15.5957 27.6424 15.5957Z" fill="#E98915" /> </g> <defs> <clipPath id="clip0_2_14379"> <rect width="29.1406" height="19.0918" fill="white" transform="translate(0.747925 0.712898)" /> </clipPath> </defs> </svg>
