<svg width="28" height="21" viewBox="0 0 28 21" fill="none" xmlns="http://www.w3.org/2000/svg"> <path d="M2.06079 16.3444L9.83232 11.6889C10.837 11.0769 10.8678 9.94313 9.83232 9.33104L2.06079 4.67555C1.00476 4.04344 0 4.52505 0 5.71903V15.291C0 16.5151 1.02527 16.9665 2.06079 16.3444ZM13.9949 21C14.3947 21 14.7536 20.689 14.7536 20.2976V0.712328C14.7536 0.321023 14.3947 0.0200195 13.9949 0.0200195C13.5951 0.0200195 13.2464 0.321023 13.2464 0.712328V20.2976C13.2464 20.689 13.5951 21 13.9949 21ZM25.929 16.3444C26.9747 16.9665 28 16.5151 28 15.291V5.71903C28 4.52505 26.9953 4.04344 25.929 4.67555L18.1575 9.33104C17.1322 9.94313 17.1527 11.0769 18.1575 11.6889L25.929 16.3444Z" fill="#3585F7" /> </svg>
