<svg width="26" height="28" viewBox="0 0 26 28" fill="none" xmlns="http://www.w3.org/2000/svg"> <g clipPath="url(#clip0_2_17545)"> <path d="M4.05328 19.4086H14.6196C15.5376 19.4086 16.3677 19.197 17.1099 18.7738C17.8521 18.3506 18.4414 17.7761 18.8776 17.0502C19.3137 16.3243 19.5317 15.5121 19.5317 14.6137C19.5317 13.7152 19.3088 12.9096 18.8629 12.1967C18.4169 11.4838 17.8098 10.9206 17.0415 10.5072C16.2733 10.0938 15.4009 9.88383 14.4243 9.87733C14.0468 9.14816 13.5764 8.52641 13.0132 8.01209C12.4501 7.49777 11.8186 7.10389 11.1187 6.83045C10.4189 6.55701 9.67506 6.4203 8.88727 6.4203C8.093 6.4203 7.34104 6.56515 6.63141 6.85487C5.92178 7.14458 5.28701 7.5466 4.72711 8.06092C4.16722 8.57524 3.71149 9.17583 3.35993 9.86268C3.00836 10.5496 2.79677 11.2966 2.72516 12.1039C1.89183 12.3513 1.22939 12.8005 0.737854 13.4515C0.246318 14.1026 0.000549316 14.8578 0.000549316 15.7172C0.000549316 16.4463 0.171448 17.0892 0.513244 17.6459C0.855041 18.2025 1.3303 18.6354 1.93903 18.9447C2.54775 19.254 3.2525 19.4086 4.05328 19.4086ZM20.7526 14.4476C21.5142 14.3174 22.1945 14.0814 22.7935 13.7396C23.3925 13.3978 23.9019 13.0007 24.3218 12.5482C24.7418 12.0957 25.0624 11.6319 25.2837 11.1566C25.5051 10.6813 25.6157 10.2419 25.6157 9.83826C25.6157 9.64946 25.5735 9.49321 25.4888 9.36951C25.4042 9.24581 25.2838 9.18397 25.1276 9.18397C24.9713 9.18397 24.7824 9.23605 24.561 9.34022C24.3397 9.44438 24.0695 9.54855 23.7505 9.65272C23.4315 9.75688 23.0474 9.80897 22.5982 9.80897C21.8039 9.80897 21.1154 9.6576 20.5327 9.35487C19.9501 9.05213 19.4993 8.62895 19.1803 8.08533C18.8612 7.54171 18.7017 6.90858 18.7017 6.18592C18.7017 5.74972 18.7603 5.35746 18.8776 5.00916C18.9947 4.66085 19.1102 4.35323 19.2241 4.08631C19.3381 3.81938 19.3951 3.60128 19.3951 3.43201C19.3951 3.27576 19.3446 3.15206 19.2437 3.06092C19.1428 2.96977 18.9947 2.92745 18.7993 2.93397C18.3436 2.95349 17.8749 3.08533 17.3931 3.32948C16.9113 3.57362 16.4507 3.9089 16.0112 4.33533C15.5718 4.76176 15.191 5.25493 14.8687 5.81483C14.5465 6.37472 14.3202 6.98019 14.19 7.63123C14.3398 7.76795 14.4862 7.93396 14.6294 8.12928C14.7727 8.32459 14.9029 8.5492 15.02 8.80311C15.8469 8.86821 16.6054 9.06026 17.2955 9.37928C17.9856 9.69829 18.5862 10.115 19.0972 10.6293C19.6083 11.1436 20.0087 11.7279 20.2984 12.3822C20.5881 13.0365 20.7395 13.725 20.7526 14.4476ZM12.1978 22.9828H10.0591L10.0396 23.4027L11.1528 21.2836C11.2114 21.1794 11.2212 21.0931 11.1821 21.0248C11.1431 20.9564 11.0715 20.9222 10.9673 20.9222H8.92633C8.78961 20.9222 8.69195 20.9466 8.63336 20.9955C8.57477 21.0443 8.52268 21.1175 8.47711 21.2152L7.22711 24.057C7.18154 24.1677 7.18154 24.2572 7.22711 24.3256C7.27268 24.3939 7.35732 24.4281 7.48102 24.4281H9.22907L9.35602 23.8617L7.86188 27.4555C7.80329 27.5922 7.82607 27.6833 7.93024 27.7289C8.02789 27.768 8.12229 27.7354 8.21344 27.6312L12.3443 23.4515C12.4485 23.3474 12.4843 23.2432 12.4517 23.139C12.4191 23.0349 12.3345 22.9828 12.1978 22.9828Z" fill="white" /> </g> <defs> <clipPath id="clip0_2_17545"> <rect width="25.6152" height="27.4441" fill="white" transform="translate(0.000549316 0.300797)" /> </clipPath> </defs> </svg>
