<svg width="20" height="16" viewBox="0 0 20 16" fill="none" xmlns="http://www.w3.org/2000/svg"> <g clipPath="url(#clip0_712_13)"> <path d="M16.25 0C17.6304 0 18.75 1.02472 18.75 2.2867V3.42947C18.75 4.03564 18.4866 4.61698 18.0178 5.0456C17.5489 5.47422 16.913 5.71502 16.25 5.71502H3.75C3.08696 5.71502 2.45107 5.47422 1.98223 5.0456C1.51339 4.61698 1.25 4.03564 1.25 3.42947V2.2867C1.25 1.02472 2.36961 0.0011464 3.75 0.0011464L16.25 0ZM16.25 1.71474H3.75C3.6679 1.71474 3.58661 1.72954 3.51077 1.7583C3.43494 1.78705 3.36605 1.8292 3.30806 1.88233C3.25006 1.93546 3.2041 1.99852 3.17279 2.0679C3.14149 2.13729 3.12546 2.21164 3.12563 2.2867V3.42947C3.12563 3.74468 3.40522 4.00029 3.75 4.00029H16.25C16.4157 4.00029 16.5747 3.94018 16.6919 3.83317C16.8092 3.72615 16.8753 3.58097 16.8756 3.42947V2.2867C16.8756 2.21159 16.8594 2.13721 16.828 2.06782C16.7966 1.99842 16.7505 1.93537 16.6924 1.88226C16.6343 1.82915 16.5653 1.78702 16.4894 1.75827C16.4135 1.72953 16.3322 1.71474 16.25 1.71474ZM16.25 10.2861C17.6304 10.2861 18.75 11.3085 18.75 12.5717V13.7144C18.75 14.3206 18.4866 14.902 18.0178 15.3306C17.5489 15.7592 16.913 16 16.25 16H3.75C3.08696 16 2.45107 15.7592 1.98223 15.3306C1.51339 14.902 1.25 14.3206 1.25 13.7144V12.5717C1.25 11.3085 2.36961 10.2861 3.75 10.2861H16.25ZM16.25 11.9997H3.75C3.58429 12 3.42548 12.0604 3.30843 12.1676C3.19137 12.2749 3.12563 12.4202 3.12563 12.5717V13.7144C3.12563 14.0297 3.40522 14.2853 3.75 14.2853H16.25C16.4157 14.2853 16.5747 14.2252 16.6919 14.1181C16.8092 14.0111 16.8753 13.8659 16.8756 13.7144V12.5717C16.8756 12.4966 16.8594 12.4222 16.828 12.3528C16.7966 12.2834 16.7505 12.2203 16.6924 12.1672C16.6343 12.1141 16.5653 12.072 16.4894 12.0433C16.4135 12.0145 16.3322 11.9997 16.25 11.9997ZM0.00125378 8.85679H20V7.14321H0V8.85679H0.00125378Z" fill="#E98F36" /> </g> <defs> <clipPath id="clip0_712_13"> <rect width="20" height="16" fill="white" /> </clipPath> </defs> </svg>
